<svg xmlns="http://www.w3.org/2000/svg" xmlns:xlink="http://www.w3.org/1999/xlink" viewBox="0,0,256,256" width="50px" height="50px"><g fill="#cc5de8" fill-rule="nonzero" stroke="none" stroke-width="1" stroke-linecap="butt" stroke-linejoin="miter" stroke-miterlimit="10" stroke-dasharray="" stroke-dashoffset="0" font-family="none" font-weight="none" font-size="none" text-anchor="none" style="mix-blend-mode: normal"><g transform="scale(5.12,5.12)"><path d="M35.60352,10.01172c-3.314,-0.131 -6.39469,0.82044 -8.92969,2.52344c-2.487,1.672 -5.46103,2.46484 -8.45703,2.46484c-1.37,0 -2.74564,-0.13425 -4.05664,-0.53125c-1.653,-0.501 -3.46837,-0.62505 -5.35937,-0.24805c-4.661,0.93 -8.25623,4.89114 -8.74023,9.61914c-0.676,6.596 4.48145,12.16016 10.93945,12.16016c1.087,0 2.13305,-0.16103 3.12305,-0.45703c1.365,-0.409 2.79866,-0.54297 4.22266,-0.54297c2.977,0 5.90191,0.84609 8.37891,2.49609c2.37,1.579 5.21239,2.50391 8.27539,2.50391c8.516,0 15.37537,-7.09722 14.98438,-15.69922c-0.349,-7.682 -6.69786,-13.98606 -14.38086,-14.28906zM8.87109,19.00586c1.02896,-0.05354 1.91703,0.20969 2.37891,0.38281c0.205,0.077 0.3418,0.26928 0.3418,0.48828l0.00195,0.82813c0.001,0.352 -0.33878,0.59023 -0.67578,0.49023c-0.607,-0.181 -1.27469,-0.27102 -1.67969,-0.29102c-0.702,-0.035 -1.18498,0.24098 -1.33398,0.45898c-0.152,0.222 -0.11841,0.68572 0.05859,0.88672c0.68,0.77 2.33283,0.98716 3.17383,1.66016c0.944,0.756 0.98778,1.23719 1.05078,1.74219c0.097,0.773 -0.19883,1.82881 -0.67383,2.25781c-0.475,0.43 -0.98253,0.88066 -2.76953,0.97266c-1.27,0.065 -2.24898,-0.31311 -2.70898,-0.53711c-0.18,-0.088 -0.28906,-0.26875 -0.28906,-0.46875v-0.89648c0,-0.37 0.3738,-0.63605 0.7168,-0.49805c0.447,0.18 1.0702,0.36939 1.7832,0.40039c1.301,0.057 1.79078,-0.2597 1.80078,-0.7207c0.026,-1.191 -1.84919,-1.33514 -3.24219,-2.11914c-1.341,-0.755 -2.14695,-3.31472 0.12305,-4.51172c0.65813,-0.34688 1.32598,-0.49327 1.94336,-0.52539zM16.49414,21.40625c0.69293,0.00479 1.39191,0.15097 2.00391,0.51172c2.184,1.29 2.35698,4.59292 0.45898,6.16992c-1.517,1.261 -3.73633,0.58789 -3.73633,0.58789v1.80273c0,0.288 -0.23348,0.52148 -0.52148,0.52148h-1.09766c-0.288,0 -0.52148,-0.23348 -0.52148,-0.52148v-7.39844c0,-0.336 0.15355,-0.66366 0.43555,-0.84766c0.6875,-0.44875 1.82363,-0.83416 2.97852,-0.82617zM24.7793,21.40625c0.679,0 2.20745,0.17837 3.18945,1.60938c0.853,1.246 0.617,3.2887 0,4.2207c-0.365,0.551 -1.12141,1.5347 -3.19141,1.5957c-2.07,0.061 -3.0048,-1.09078 -3.3418,-1.55078c-0.337,-0.46 -1.04698,-2.36386 -0.08398,-4.13086c0.878,-1.611 2.47373,-1.74414 3.42773,-1.74414zM33.12109,21.40625c0.679,0 2.20941,0.17837 3.19141,1.60938c0.853,1.246 0.61505,3.2887 -0.00195,4.2207c-0.365,0.551 -1.11945,1.5347 -3.18945,1.5957c-2.07,0.061 -3.00675,-1.09078 -3.34375,-1.55078c-0.337,-0.46 -1.04698,-2.36386 -0.08398,-4.13086c0.878,-1.611 2.47373,-1.74414 3.42773,-1.74414zM41.24805,21.43359c0.2847,0.00775 0.57795,0.04225 0.87695,0.10938c2.392,0.537 2.37695,2.57813 2.37695,2.57813v4.19141h-0.00195c0,0.288 -0.23348,0.52344 -0.52148,0.52344h-1.13477c-0.288,0 -0.52148,-0.23544 -0.52148,-0.52344v-3.79297c-0.199,-1.949 -2.4375,-0.91992 -2.4375,-0.91992v4.71289c0,0.288 -0.23349,0.52344 -0.52148,0.52344h-1.14844c-0.288,0 -0.52148,-0.23544 -0.52148,-0.52344v-5.71094c0,0 1.56177,-1.22223 3.55469,-1.16797zM24.61523,23.26172c0,0 -1.47895,0.00081 -1.50195,1.88281c-0.023,1.882 1.58008,1.88477 1.58008,1.88477c0,0 1.61424,0.11184 1.61523,-1.91016c0,-1.965 -1.69336,-1.85742 -1.69336,-1.85742zM32.95703,23.26172c0,0 -1.47895,0.00081 -1.50195,1.88281c-0.023,1.882 1.58008,1.88477 1.58008,1.88477c0,0 1.61424,0.11184 1.61523,-1.91016c0.001,-1.965 -1.69336,-1.85742 -1.69336,-1.85742zM16.45898,23.30078c-0.37588,-0.03412 -0.81386,-0.00113 -1.19336,0.17188v3.28125c0,0 1.83025,0.80467 2.53125,-0.61133c0.702,-1.416 -0.14958,-2.34828 -0.51758,-2.61328c-0.13,-0.0935 -0.44444,-0.19439 -0.82031,-0.22852z"></path></g></g></svg>